<svg xmlns="http://www.w3.org/2000/svg" xmlns:xlink="http://www.w3.org/1999/xlink" width="64" viewBox="0 0 48 48" height="64" preserveAspectRatio="xMidYMid meet"><defs><clipPath id="1b9ffddcd6"><path d="M 31 17 L 44.347656 17 L 44.347656 31 L 31 31 Z M 31 17 " clip-rule="nonzero"></path></clipPath><clipPath id="2b1d201b66"><path d="M 3.941406 10.972656 L 39 10.972656 L 39 35.953125 L 3.941406 35.953125 Z M 3.941406 10.972656 " clip-rule="nonzero"></path></clipPath></defs><path fill="#f87d5e" d="M 18.460938 29.707031 C 18.113281 29.707031 17.832031 29.988281 17.832031 30.332031 C 17.832031 30.675781 18.113281 30.957031 18.460938 30.957031 L 23.511719 30.957031 C 23.859375 30.957031 24.144531 30.675781 24.144531 30.332031 C 24.144531 29.988281 23.859375 29.707031 23.511719 29.707031 Z M 18.460938 29.707031 " fill-opacity="1" fill-rule="nonzero"></path><path fill="#f87d5e" d="M 9.65625 30.144531 C 9.65625 30.289062 9.601562 30.414062 9.496094 30.519531 C 9.390625 30.625 9.265625 30.675781 9.117188 30.675781 C 8.96875 30.675781 8.84375 30.625 8.738281 30.519531 C 8.632812 30.414062 8.582031 30.289062 8.582031 30.144531 C 8.582031 29.996094 8.632812 29.871094 8.738281 29.769531 C 8.84375 29.664062 8.96875 29.613281 9.117188 29.613281 C 9.265625 29.613281 9.390625 29.664062 9.496094 29.769531 C 9.601562 29.871094 9.65625 29.996094 9.65625 30.144531 Z M 9.65625 30.144531 " fill-opacity="1" fill-rule="nonzero"></path><path fill="#f87d5e" d="M 7.539062 30.144531 C 7.539062 30.289062 7.488281 30.414062 7.382812 30.519531 C 7.277344 30.625 7.152344 30.675781 7.003906 30.675781 C 6.855469 30.675781 6.726562 30.625 6.625 30.519531 C 6.519531 30.414062 6.464844 30.289062 6.464844 30.144531 C 6.464844 29.996094 6.519531 29.871094 6.625 29.769531 C 6.726562 29.664062 6.855469 29.613281 7.003906 29.613281 C 7.152344 29.613281 7.277344 29.664062 7.382812 29.769531 C 7.488281 29.871094 7.539062 29.996094 7.539062 30.144531 Z M 7.539062 30.144531 " fill-opacity="1" fill-rule="nonzero"></path><g clip-path="url(#1b9ffddcd6)"><path fill="#f87d5e" d="M 43.117188 21.808594 C 43.054688 21.652344 42.992188 21.527344 42.929688 21.371094 C 43.339844 20.777344 43.273438 19.964844 42.738281 19.433594 L 42.105469 18.8125 C 41.824219 18.53125 41.414062 18.375 41.003906 18.375 C 40.6875 18.375 40.402344 18.46875 40.148438 18.625 C 40.023438 18.5625 39.867188 18.5 39.707031 18.4375 C 39.550781 17.71875 38.917969 17.21875 38.191406 17.21875 L 37.308594 17.21875 C 36.550781 17.21875 35.917969 17.75 35.792969 18.4375 C 35.636719 18.5 35.507812 18.5625 35.351562 18.625 C 35.097656 18.46875 34.816406 18.375 34.5 18.375 C 34.089844 18.375 33.679688 18.53125 33.394531 18.8125 L 32.761719 19.433594 C 32.226562 19.964844 32.164062 20.777344 32.574219 21.371094 C 32.511719 21.496094 32.445312 21.652344 32.382812 21.808594 C 31.65625 21.964844 31.152344 22.589844 31.152344 23.308594 L 31.152344 24.179688 C 31.152344 24.929688 31.691406 25.554688 32.382812 25.679688 C 32.445312 25.835938 32.511719 25.960938 32.574219 26.117188 C 32.414062 26.367188 32.320312 26.648438 32.320312 26.960938 C 32.320312 27.367188 32.480469 27.769531 32.761719 28.050781 L 33.394531 28.675781 C 33.679688 28.957031 34.089844 29.113281 34.5 29.113281 C 34.816406 29.113281 35.097656 29.019531 35.351562 28.863281 C 35.476562 28.925781 35.636719 28.988281 35.792969 29.050781 C 35.953125 29.769531 36.582031 30.269531 37.308594 30.269531 L 38.191406 30.269531 C 38.949219 30.269531 39.582031 29.738281 39.707031 29.050781 C 39.867188 28.988281 39.992188 28.925781 40.148438 28.863281 C 40.402344 29.019531 40.6875 29.113281 41.003906 29.113281 C 41.414062 29.113281 41.824219 28.957031 42.105469 28.675781 L 42.738281 28.050781 C 43.023438 27.769531 43.179688 27.367188 43.179688 26.960938 C 43.179688 26.648438 43.085938 26.367188 42.929688 26.117188 C 42.992188 25.992188 43.054688 25.835938 43.117188 25.679688 C 43.84375 25.523438 44.347656 24.898438 44.347656 24.179688 L 44.347656 23.308594 C 44.347656 22.589844 43.8125 21.964844 43.117188 21.808594 Z M 43.085938 24.210938 C 43.085938 24.367188 42.960938 24.492188 42.800781 24.492188 L 42.140625 24.492188 C 42.011719 25.179688 41.761719 25.773438 41.382812 26.304688 L 41.855469 26.773438 C 41.980469 26.898438 41.980469 27.085938 41.855469 27.179688 L 41.222656 27.800781 C 41.160156 27.863281 41.097656 27.894531 41.003906 27.894531 C 40.90625 27.894531 40.84375 27.863281 40.78125 27.800781 L 40.308594 27.335938 C 39.769531 27.707031 39.140625 27.988281 38.476562 28.082031 L 38.476562 28.738281 C 38.476562 28.894531 38.351562 29.019531 38.191406 29.019531 L 37.308594 29.019531 C 37.152344 29.019531 37.023438 28.894531 37.023438 28.738281 L 37.023438 28.144531 C 36.332031 28.019531 35.730469 27.769531 35.195312 27.398438 L 34.65625 27.832031 C 34.59375 27.894531 34.53125 27.925781 34.4375 27.925781 C 34.339844 27.925781 34.308594 27.894531 34.246094 27.832031 L 33.617188 27.210938 C 33.488281 27.085938 33.488281 26.898438 33.617188 26.804688 L 34.089844 26.335938 C 33.710938 25.804688 33.425781 25.179688 33.332031 24.523438 L 32.667969 24.523438 C 32.511719 24.523438 32.382812 24.398438 32.382812 24.242188 L 32.382812 23.371094 C 32.382812 23.214844 32.511719 23.089844 32.667969 23.089844 L 33.300781 23.089844 C 33.425781 22.402344 33.679688 21.808594 34.058594 21.277344 L 33.617188 20.746094 C 33.488281 20.621094 33.488281 20.433594 33.617188 20.339844 L 34.246094 19.714844 C 34.308594 19.652344 34.371094 19.621094 34.46875 19.621094 C 34.5625 19.621094 34.625 19.652344 34.6875 19.714844 L 35.164062 20.183594 C 35.699219 19.808594 36.332031 19.527344 36.992188 19.433594 L 36.992188 18.78125 C 36.992188 18.625 37.121094 18.5 37.277344 18.5 L 38.160156 18.5 C 38.320312 18.5 38.445312 18.625 38.445312 18.78125 L 38.445312 19.402344 C 39.140625 19.527344 39.738281 19.777344 40.277344 20.152344 L 40.75 19.683594 C 40.8125 19.621094 40.875 19.589844 40.972656 19.589844 C 41.066406 19.589844 41.128906 19.621094 41.191406 19.683594 L 41.824219 20.308594 C 41.949219 20.433594 41.949219 20.621094 41.824219 20.714844 L 41.351562 21.183594 C 41.726562 21.714844 42.011719 22.339844 42.105469 22.996094 L 42.769531 22.996094 C 42.929688 22.996094 43.054688 23.121094 43.054688 23.277344 L 43.054688 24.210938 Z M 43.085938 24.210938 " fill-opacity="1" fill-rule="nonzero"></path></g><path fill="#f87d5e" d="M 37.71875 21.277344 C 36.332031 21.277344 35.195312 22.402344 35.195312 23.773438 C 35.195312 25.148438 36.332031 26.273438 37.71875 26.273438 C 39.109375 26.273438 40.246094 25.148438 40.246094 23.773438 C 40.246094 22.402344 39.109375 21.277344 37.71875 21.277344 Z M 37.71875 25.023438 C 37.023438 25.023438 36.457031 24.460938 36.457031 23.773438 C 36.457031 23.089844 37.023438 22.527344 37.71875 22.527344 C 38.414062 22.527344 38.980469 23.089844 38.980469 23.773438 C 38.980469 24.460938 38.414062 25.023438 37.71875 25.023438 Z M 37.71875 25.023438 " fill-opacity="1" fill-rule="nonzero"></path><g clip-path="url(#2b1d201b66)"><path fill="#f87d5e" d="M 18.460938 34.703125 L 16.566406 34.703125 C 16.222656 34.703125 15.9375 34.984375 15.9375 35.328125 C 15.9375 35.671875 16.222656 35.953125 16.566406 35.953125 L 25.40625 35.953125 C 25.753906 35.953125 26.039062 35.671875 26.039062 35.328125 C 26.039062 34.984375 25.753906 34.703125 25.40625 34.703125 L 23.511719 34.703125 L 23.511719 32.828125 L 36.140625 32.828125 C 36.960938 32.828125 37.65625 32.296875 37.941406 31.582031 L 37.277344 31.582031 C 37.152344 31.582031 37.023438 31.582031 36.898438 31.550781 C 36.898438 31.550781 36.867188 31.550781 36.867188 31.550781 C 36.742188 31.519531 36.644531 31.519531 36.519531 31.488281 C 36.425781 31.550781 36.296875 31.613281 36.171875 31.613281 L 5.835938 31.613281 C 5.488281 31.613281 5.203125 31.332031 5.203125 30.988281 L 5.203125 29.113281 L 31.910156 29.113281 L 31.816406 29.019531 C 31.277344 28.488281 30.996094 27.800781 30.996094 27.054688 C 30.996094 26.898438 30.996094 26.710938 31.027344 26.554688 C 30.300781 26.054688 29.828125 25.210938 29.828125 24.273438 L 29.828125 23.402344 C 29.828125 22.464844 30.300781 21.621094 31.027344 21.121094 C 30.996094 20.964844 30.996094 20.777344 30.996094 20.621094 C 30.996094 19.871094 31.277344 19.1875 31.816406 18.65625 L 32.445312 18.03125 C 32.984375 17.5 33.679688 17.21875 34.4375 17.21875 C 34.59375 17.21875 34.785156 17.21875 34.941406 17.25 C 35.445312 16.53125 36.296875 16.0625 37.246094 16.0625 L 38.003906 16.0625 L 38.003906 12.847656 C 38.003906 11.816406 37.152344 10.972656 36.109375 10.972656 L 5.835938 10.972656 C 4.792969 10.972656 3.941406 11.816406 3.941406 12.847656 L 3.941406 30.957031 C 3.941406 31.984375 4.792969 32.828125 5.835938 32.828125 L 18.460938 32.828125 Z M 24.113281 16.8125 C 23.828125 16.625 23.734375 16.25 23.957031 15.9375 C 24.144531 15.65625 24.523438 15.5625 24.839844 15.75 L 30.523438 19.496094 C 30.710938 19.621094 30.804688 19.808594 30.804688 20.027344 C 30.804688 20.246094 30.710938 20.433594 30.523438 20.558594 L 24.839844 24.304688 C 24.554688 24.492188 24.144531 24.398438 23.957031 24.148438 C 23.765625 23.867188 23.828125 23.460938 24.113281 23.277344 L 29.007812 20.027344 Z M 19.125 24.554688 L 21.652344 15.1875 C 21.746094 14.847656 22.09375 14.660156 22.441406 14.753906 C 22.789062 14.847656 22.976562 15.1875 22.882812 15.5 L 20.355469 24.867188 C 20.292969 25.148438 20.039062 25.335938 19.757812 25.335938 C 19.695312 25.335938 19.660156 25.335938 19.597656 25.304688 C 19.21875 25.210938 19.03125 24.867188 19.125 24.554688 Z M 11.484375 19.496094 L 17.167969 15.75 C 17.453125 15.5625 17.863281 15.625 18.050781 15.9375 C 18.242188 16.21875 18.179688 16.625 17.894531 16.8125 L 12.96875 20.027344 L 17.863281 23.246094 C 18.148438 23.429688 18.242188 23.835938 18.019531 24.117188 C 17.832031 24.398438 17.421875 24.492188 17.136719 24.273438 L 11.453125 20.527344 C 11.265625 20.402344 11.167969 20.214844 11.167969 19.996094 C 11.203125 19.808594 11.296875 19.621094 11.484375 19.496094 Z M 19.726562 32.828125 L 22.25 32.828125 L 22.25 34.703125 L 19.726562 34.703125 Z M 19.726562 32.828125 " fill-opacity="1" fill-rule="nonzero"></path></g></svg>